<svg xmlns="http://www.w3.org/2000/svg" version="1.1" xmlns:xlink="http://www.w3.org/1999/xlink" width="1500" height="1500" viewBox="0 0 1500 1500"><rect width="1500" height="1500" x="0" y="0" id="background" stroke="transparent" fill="#ffffff"></rect><svg xml:space="preserve" width="1000" height="1000" data-version="2" data-id="lg_MYBuySeh8uQEQ3Jofz" viewBox="0 0 410 399" x="250" y="250"><path fill="#333333" d="M28.875 345.583v-53.48h12.6v53.48Z"></path><rect width="12.6" height="53.48" x="-6.3" y="-26.74" fill="none" rx="0" ry="0" transform="translate(35.67 319.34)"></rect><path fill="#333333" d="M51.555 345.583v-37.43l9.42-.56.48 6.52h.94q1.28-1.83 3.08-3.43 1.8-1.59 4.14-2.57 2.34-.97 5.34-.97 5.63 0 8.52 3.32 2.88 3.32 2.88 9.92v25.2h-11.17v-21.6q0-3.3-1.09-4.97t-3.9-1.67q-1.61 0-2.96.65-1.35.66-2.48 1.77-1.12 1.1-1.98 2.45v23.37Z"></path><rect width="34.8" height="38.44" x="-17.4" y="-19.22" fill="none" rx="0" ry="0" transform="translate(69.45 326.86)"></rect><path fill="#333333" d="M94.945 345.583v-37.43l9.41-.56.49 6.52h.94q1.27-1.83 3.07-3.43 1.8-1.59 4.15-2.57 2.34-.97 5.34-.97 5.63 0 8.51 3.32 2.89 3.32 2.89 9.92v25.2h-11.17v-21.6q0-3.3-1.09-4.97t-3.9-1.67q-1.61 0-2.96.65-1.35.66-2.48 1.77-1.12 1.1-1.99 2.45v23.37Z"></path><rect width="34.8" height="38.44" x="-17.4" y="-19.22" fill="none" rx="0" ry="0" transform="translate(112.84 326.86)"></rect><path fill="#333333" d="M157.085 346.553q-7.24 0-11.83-2.55-4.6-2.55-6.75-7.01-2.16-4.46-2.16-10.24 0-5.77 2.03-10.2 2.02-4.42 6.05-6.92 4.03-2.49 10.03-2.49 5.1 0 8.74 1.82 3.64 1.82 5.59 5.49 1.95 3.68 1.95 9.26 0 1.5-.08 2.67-.07 1.16-.26 2.32l-9.6-3.64q.08-.48.11-1.01.04-.52.04-.97 0-3.79-1.78-5.95-1.78-2.15-4.59-2.15-2.14 0-3.79 1.25-1.65 1.26-2.59 3.51t-.94 5.36v1.84q0 3.26 1.18 5.59 1.19 2.32 3.66 3.56 2.48 1.24 6.34 1.24 1.5 0 3.47-.29 1.97-.28 4.01-.86t3.81-1.48l.37 9.45q-1.46.68-3.39 1.22-1.93.54-4.37.86-2.44.32-5.25.32m-16.43-17.85v-6l23.22-.49 6.52 1.84v4.65Z"></path><rect width="34.39" height="39.41" x="-17.2" y="-19.7" fill="none" rx="0" ry="0" transform="translate(154.04 327.35)"></rect><path fill="#333333" d="M177.825 345.583v-37.43l9.41-.56.49 6.9h.93q1.47-3.04 3.23-4.63 1.76-1.6 3.6-2.16t3.52-.56q.87 0 1.93.15 1.07.15 2.01.52l-.97 10.88q-1.47-.11-2.63-.19-1.16-.07-2.47-.07-1.05 0-2.16.22-1.11.23-2.16.9-1.05.68-1.95 1.88-.9 1.2-1.57 3.11v21.04Z"></path><rect width="25.12" height="38.44" x="-12.56" y="-19.22" fill="none" rx="0" ry="0" transform="translate(190.88 326.86)"></rect><path fill="#333333" d="M226.425 346.553q-3.34 0-6.85-.54-3.5-.55-6.56-1.41-3.06-.86-4.97-1.8l.9-10.84q2.59 1.47 5.42 2.5t5.66 1.59q2.83.56 5.42.56t4.5-.63q1.91-.64 2.96-1.94 1.05-1.29 1.05-3.35 0-2.1-1.37-3.47-1.36-1.37-3.91-2.4-2.55-1.03-6.08-2.04-4.87-1.43-8.32-3.32-3.45-1.9-5.27-4.88-1.82-2.98-1.82-7.67 0-4.68 2.06-8.27 2.06-3.58 6.23-5.6 4.16-2.03 10.53-2.03 2.52 0 5.03.32 2.51.32 4.89.85 2.38.52 4.41 1.2 2.02.67 3.52 1.42l-.93 10.88q-2.4-1.5-4.99-2.52-2.59-1.01-5.06-1.53-2.48-.53-4.5-.53-2.29 0-4.15.6-1.85.6-2.94 1.84-1.09 1.24-1.09 3.11 0 1.84 1.03 3.09 1.03 1.26 3.19 2.22 2.16.95 5.57 1.97 6.41 1.91 10.12 3.99 3.72 2.08 5.27 5.01 1.56 2.92 1.56 7.35 0 4.91-2.14 8.56-2.14 3.66-6.67 5.69-4.54 2.02-11.7 2.02"></path><rect width="39.75" height="55.54" x="-19.88" y="-27.77" fill="none" rx="0" ry="0" transform="translate(227.56 319.28)"></rect><path fill="#333333" d="M254.025 345.583v-37.43l11.21-.34v37.77Zm5.51-43.2q-3.11 0-4.97-1.49-1.86-1.48-1.86-4.81 0-3 1.86-4.6 1.86-1.59 5.04-1.59 3.19 0 5.01 1.67 1.82 1.67 1.82 4.52 0 3.33-1.84 4.81-1.84 1.49-5.06 1.49"></path><rect width="13.73" height="55.69" x="-6.87" y="-27.84" fill="none" rx="0" ry="0" transform="translate(260.07 318.24)"></rect><path fill="#333333" d="M287.995 360.913q-4.24 0-7.11-.71-2.86-.71-4.55-1.93t-2.42-2.78q-.73-1.55-.73-3.2 0-2.48 1.2-4.07 1.2-1.59 2.83-2.49 1.63-.9 2.87-1.28v-.75q-.79-.19-1.75-.86-.95-.68-1.66-1.84-.72-1.16-.72-2.85 0-1.24.47-2.4t1.48-2.14q1.02-.97 2.67-1.65v-.75q-1.2-.48-2.59-1.38-1.39-.9-2.63-2.31-1.23-1.41-2.02-3.36t-.79-4.57q0-3.49 1.74-6.32 1.75-2.83 5.29-4.48 3.55-1.65 8.95-1.65 2.1 0 3.67.2 1.58.21 3.26.44 1.69.22 4.24.22h10.28v7.39h-13.17l2.93-4.65q2.4 1.57 3.54 3.95 1.15 2.39 1.15 5.42 0 3.64-1.62 6.12-1.61 2.47-4.37 3.97-2.75 1.5-6.13 2.21-3.11.68-4.61 1.24-1.5.56-1.5 1.69 0 .71.64 1.12.64.42 1.99.58 1.35.17 3.48.17h1.5q4.77 0 8.18.83 3.41.82 5.23 2.92 1.82 2.1 1.82 5.82 0 3.86-1.88 6.56-1.87 2.7-4.98 4.37-3.12 1.67-6.81 2.43-3.69.77-7.37.77m1.39-7.72q3.11 0 5.15-.79 2.05-.79 3.04-1.82 1-1.03 1-1.78 0-.94-.62-1.61-.62-.68-2.35-1.03-1.72-.36-4.98-.36h-1.17q-1.53.08-3.09.58-1.56.51-2.59 1.37-1.03.86-1.03 1.99 0 .67.39 1.29.4.62 1.19 1.11.78.49 2.06.77 1.27.28 3 .28m-1.05-27q.97-.08 2.08-.41 1.11-.34 2.08-.92.98-.58 1.58-1.5.6-.92.6-2.2 0-1.72-.9-2.85-.9-1.12-2.29-1.68-1.39-.57-2.93-.57-1.5 0-2.81.57-1.31.56-2.14 1.63-.82 1.07-.82 2.57 0 1.46.79 2.56.78 1.11 2.04 1.82 1.26.72 2.72.98"></path><rect width="37.43" height="53.77" x="-18.71" y="-26.89" fill="none" rx="0" ry="0" transform="translate(291.76 334.53)"></rect><path fill="#333333" d="M315.895 345.583v-54.98l11.21-.97v23.73h.94q1.13-1.61 2.74-3.03 1.61-1.43 3.73-2.31 2.12-.88 4.78-.88 5.63 0 8.51 3.32 2.89 3.32 2.89 9.92v25.2h-11.17v-21.6q0-3.3-1.09-4.97t-3.9-1.67q-1.61 0-2.96.65-1.35.66-2.48 1.77-1.12 1.1-1.99 2.45v23.37Z"></path><rect width="34.8" height="55.95" x="-17.4" y="-27.98" fill="none" rx="0" ry="0" transform="translate(333.8 318.1)"></rect><path fill="#333333" d="M375.295 346.593q-4.16 0-7.11-1.26-2.94-1.25-4.5-4.03-1.55-2.77-1.55-7.31v-37.99l11.02-1.99v36.45q0 3.42 1.26 5.2 1.26 1.78 4.11 1.78 1.2 0 2.62-.43 1.43-.43 2.74-1.37l.64 9.07q-.98.6-2.48 1.02-1.5.41-3.26.63-1.76.23-3.49.23m-19.24-30v-8.44h28.28v8.44h-18.9Z"></path><rect width="28.47" height="52.58" x="-14.23" y="-26.29" fill="none" rx="0" ry="0" transform="translate(370.79 320.8)"></rect><path fill="#333333" d="m8.685 388.713-2.8-4.74q-.45-.75-.86-1.46l-.96-1.62h1.87l.84 1.49q.35.62.67 1.17.31.56.69 1.22l1.24 2.19h.17l1.2-2.11.74-1.28q.32-.58.68-1.2.36-.63.85-1.48h1.83q-.46.79-.92 1.56-.45.77-.89 1.51l-2.8 4.75Zm-.04 5.02v-6.37h1.63v6.37Z"></path><rect width="10.78" height="12.84" x="-5.39" y="-6.42" fill="none" rx="0" ry="0" transform="translate(9.96 387.81)"></rect><path fill="#333333" d="M22.045 393.933q-1.63 0-2.86-.53-1.22-.53-2.03-1.45-.82-.92-1.22-2.12-.41-1.2-.41-2.53 0-1.87.76-3.37.76-1.51 2.2-2.39 1.44-.88 3.5-.88 1.57 0 2.77.51 1.2.52 2.02 1.42.82.91 1.23 2.12.42 1.21.42 2.58 0 1.9-.76 3.4-.75 1.5-2.19 2.37-1.43.87-3.43.87m-.05-1.41q1.23 0 2.13-.43.89-.42 1.47-1.16t.86-1.68q.28-.94.28-1.96 0-1.1-.31-2.04-.3-.95-.9-1.67-.59-.72-1.48-1.12-.88-.4-2.05-.4-1.2 0-2.1.43-.9.42-1.49 1.15-.59.74-.89 1.68-.3.94-.3 1.97 0 1.05.29 1.98.29.94.88 1.67.59.74 1.49 1.16.9.42 2.12.42"></path><rect width="12.9" height="13.27" x="-6.45" y="-6.63" fill="none" rx="0" ry="0" transform="translate(22.48 387.8)"></rect><path fill="#333333" d="M35.915 393.933q-1.8 0-2.92-.62-1.12-.62-1.64-1.74-.53-1.12-.53-2.61v-8.07h1.62v7.91q0 1.16.34 1.99.34.84 1.11 1.29.76.44 2.02.44t2.02-.44q.75-.45 1.08-1.29.33-.83.33-2.01v-7.89h1.62v8.07q0 1.49-.53 2.61-.53 1.12-1.64 1.74-1.12.62-2.88.62"></path><rect width="10.14" height="13.04" x="-5.07" y="-6.52" fill="none" rx="0" ry="0" transform="translate(36.4 387.91)"></rect><path fill="#333333" d="M44.145 393.733v-12.84h4.34q1.47 0 2.44.35.98.35 1.47 1.11.49.77.49 2.02 0 1.05-.41 1.92-.41.88-1.36 1.4-.96.53-2.59.54l.52-.71 2.02 2.53q.48.58 1.01 1.25.53.66 1.03 1.3.51.63.9 1.13h-1.9q-.64-.81-1.23-1.57-.59-.75-1.17-1.47l-2.3-2.97 1 .8h-2.95v-1.34h2.44q1.13 0 1.86-.27.73-.26 1.09-.84.36-.58.36-1.54 0-.8-.26-1.26-.26-.47-.67-.68-.42-.22-.91-.28-.49-.07-.94-.07h-3.78l1.09-1.11v12.6Z"></path><rect width="9.86" height="12.84" x="-4.93" y="-6.42" fill="none" rx="0" ry="0" transform="translate(49.58 387.81)"></rect><path fill="#333333" d="M62.945 393.733v-12.6l.65 1.21h-5.05v-1.45h10.42v1.45h-5.05l.66-1.21v12.6Z"></path><rect width="10.42" height="12.84" x="-5.21" y="-6.42" fill="none" rx="0" ry="0" transform="translate(64.25 387.81)"></rect><path fill="#333333" d="M79.725 393.733v-12.84h1.63v12.84Zm-8.53 0v-12.84h1.62v12.84Zm1.06-5.8v-1.4h8.09v1.4Z"></path><rect width="10.16" height="12.84" x="-5.08" y="-6.42" fill="none" rx="0" ry="0" transform="translate(76.78 387.81)"></rect><path fill="#333333" d="M90.435 393.933q-1.63 0-2.86-.53-1.22-.53-2.03-1.45-.82-.92-1.22-2.12-.41-1.2-.41-2.53 0-1.87.76-3.37.76-1.51 2.2-2.39 1.44-.88 3.5-.88 1.57 0 2.77.51 1.2.52 2.02 1.42.82.91 1.23 2.12.42 1.21.42 2.58 0 1.9-.76 3.4-.75 1.5-2.18 2.37-1.44.87-3.44.87m-.05-1.41q1.24 0 2.13-.43.89-.42 1.47-1.16t.86-1.68q.28-.94.28-1.96 0-1.1-.3-2.04-.31-.95-.9-1.67-.6-.72-1.49-1.12-.88-.4-2.05-.4-1.2 0-2.1.43-.89.42-1.49 1.15-.59.74-.89 1.68-.3.94-.3 1.97 0 1.05.29 1.98.29.94.88 1.67.59.74 1.49 1.16.9.42 2.12.42"></path><rect width="12.9" height="13.27" x="-6.45" y="-6.63" fill="none" rx="0" ry="0" transform="translate(90.86 387.8)"></rect><path fill="#333333" d="M104.305 393.933q-1.79 0-2.91-.62-1.13-.62-1.65-1.74-.53-1.12-.53-2.61v-8.07h1.62v7.91q0 1.16.34 1.99.35.84 1.11 1.29.76.44 2.02.44 1.27 0 2.02-.44.75-.45 1.08-1.29.33-.83.33-2.01v-7.89h1.62v8.07q0 1.49-.53 2.61-.53 1.12-1.64 1.74-1.12.62-2.88.62"></path><rect width="10.14" height="13.04" x="-5.07" y="-6.52" fill="none" rx="0" ry="0" transform="translate(104.78 387.91)"></rect><path fill="#333333" d="M118.615 393.923q-1.68 0-2.95-.5-1.27-.5-2.14-1.4-.86-.9-1.31-2.11-.44-1.21-.44-2.63 0-1.93.79-3.43.8-1.5 2.25-2.34 1.46-.85 3.43-.85.67 0 1.31.09.63.09 1.19.25.57.15 1.04.33.47.18.81.36l-.14 1.57q-.75-.41-1.45-.67-.7-.26-1.37-.37-.66-.12-1.29-.12-1.07 0-1.97.35-.9.35-1.55 1.03-.66.67-1.01 1.63-.36.97-.36 2.18 0 1.1.31 2.05.31.96.95 1.68.65.72 1.65 1.12 1 .4 2.36.4.51 0 1.01-.05.51-.05 1-.16t.96-.29q.48-.18.93-.42l.19 1.53q-.31.15-.76.28-.46.14-1.01.25-.56.11-1.18.17-.61.07-1.25.07m2.66-.74v-5.9h1.54v5.87Z"></path><rect width="11.04" height="13.26" x="-5.52" y="-6.63" fill="none" rx="0" ry="0" transform="translate(117.8 387.8)"></rect><path fill="#333333" d="M134.265 393.733v-12.84h1.63v12.84Zm-8.53 0v-12.84h1.62v12.84Zm1.06-5.8v-1.4h8.09v1.4Z"></path><rect width="10.16" height="12.84" x="-5.08" y="-6.42" fill="none" rx="0" ry="0" transform="translate(131.31 387.81)"></rect><path fill="#333333" d="M142.515 393.733v-12.6l.65 1.21h-5.05v-1.45h10.42v1.45h-5.05l.66-1.21v12.6Z"></path><rect width="10.42" height="12.84" x="-5.21" y="-6.42" fill="none" rx="0" ry="0" transform="translate(143.82 387.81)"></rect><path fill="#333333" d="M154.485 393.933q-.8 0-1.61-.15-.82-.15-1.51-.37-.69-.22-1.11-.45l.15-1.54q.61.34 1.26.58.65.25 1.33.39.68.13 1.39.13.8 0 1.45-.22.64-.22 1.01-.7.38-.48.38-1.27 0-.68-.39-1.12-.39-.45-1.12-.77-.73-.33-1.78-.65-1.22-.39-2.09-.84-.86-.45-1.31-1.11-.46-.66-.46-1.69 0-1 .47-1.79.48-.79 1.41-1.25.94-.45 2.32-.45.58 0 1.14.08.56.08 1.08.22.51.14.93.31.43.17.72.35l-.16 1.55q-.55-.37-1.16-.62-.61-.24-1.21-.36-.61-.13-1.12-.13-.73 0-1.34.22-.61.22-.99.66-.37.45-.37 1.15 0 .61.31 1.02.32.4 1 .72.68.32 1.75.66 1.55.49 2.43.99.89.5 1.26 1.15.38.66.38 1.61 0 1.06-.47 1.89-.46.82-1.44 1.31-.98.49-2.53.49"></path><rect width="8.85" height="13.27" x="-4.42" y="-6.63" fill="none" rx="0" ry="0" transform="translate(155 387.8)"></rect><path fill="#333333" d="M161.775 393.933q-.37 0-.63-.16-.27-.15-.41-.41-.15-.26-.15-.61 0-.53.33-.85.32-.31.86-.31.38 0 .64.14t.41.4q.15.27.15.62 0 .52-.32.85-.32.33-.88.33"></path><rect width="2.39" height="2.34" x="-1.2" y="-1.17" fill="none" rx="0" ry="0" transform="translate(162.28 393.26)"></rect><path fill="#333333" d="m172.455 388.713-2.8-4.74q-.45-.75-.86-1.46t-.95-1.62h1.86q.49.87.85 1.49l.66 1.17q.32.56.69 1.22l1.25 2.19h.16l1.2-2.11.74-1.28q.33-.58.69-1.2.36-.63.84-1.48h1.83l-.91 1.56-.9 1.51-2.8 4.75Zm-.03 5.02v-6.37h1.63v6.37Z"></path><rect width="10.77" height="12.84" x="-5.38" y="-6.42" fill="none" rx="0" ry="0" transform="translate(173.73 387.81)"></rect><path fill="#333333" d="M185.815 393.933q-1.63 0-2.85-.53-1.23-.53-2.04-1.45-.82-.92-1.22-2.12-.41-1.2-.41-2.53 0-1.87.76-3.37.76-1.51 2.2-2.39 1.44-.88 3.51-.88 1.56 0 2.76.51 1.2.52 2.02 1.42.82.91 1.24 2.12.41 1.21.41 2.58 0 1.9-.76 3.4-.75 1.5-2.18 2.37-1.43.87-3.44.87m-.05-1.41q1.24 0 2.13-.43.89-.42 1.47-1.16t.86-1.68q.28-.94.28-1.96 0-1.1-.3-2.04-.3-.95-.9-1.67-.6-.72-1.48-1.12-.89-.4-2.06-.4-1.2 0-2.1.43-.89.42-1.49 1.15-.59.74-.89 1.68-.29.94-.29 1.97 0 1.05.28 1.98.29.94.88 1.67.59.74 1.49 1.16.9.42 2.12.42"></path><rect width="12.9" height="13.27" x="-6.45" y="-6.63" fill="none" rx="0" ry="0" transform="translate(186.25 387.8)"></rect><path fill="#333333" d="M199.685 393.933q-1.79 0-2.91-.62t-1.65-1.74q-.53-1.12-.53-2.61v-8.07h1.62v7.91q0 1.16.35 1.99.34.84 1.1 1.29.76.44 2.02.44 1.27 0 2.02-.44.75-.45 1.08-1.29.34-.83.34-2.01v-7.89h1.62v8.07q0 1.49-.53 2.61-.54 1.12-1.65 1.74-1.12.62-2.88.62"></path><rect width="10.15" height="13.04" x="-5.08" y="-6.52" fill="none" rx="0" ry="0" transform="translate(200.17 387.91)"></rect><path fill="#333333" d="M207.915 393.733v-12.84h4.34q1.47 0 2.45.35.97.35 1.46 1.11.49.77.49 2.02 0 1.05-.41 1.92-.41.88-1.36 1.4-.95.53-2.58.54l.51-.71 2.02 2.53q.48.58 1.01 1.25.53.66 1.04 1.3.5.63.9 1.13h-1.91q-.64-.81-1.23-1.57-.59-.75-1.16-1.47l-2.31-2.97 1 .8h-2.94v-1.34h2.44q1.12 0 1.85-.27.73-.26 1.09-.84.36-.58.36-1.54 0-.8-.26-1.26-.25-.47-.67-.68-.42-.22-.91-.28-.48-.07-.93-.07h-3.78l1.09-1.11v12.6Z"></path><rect width="9.87" height="12.84" x="-4.93" y="-6.42" fill="none" rx="0" ry="0" transform="translate(213.35 387.81)"></rect><path fill="#333333" d="M227.155 393.933q-.8 0-1.62-.15-.81-.15-1.5-.37t-1.11-.45l.15-1.54q.6.34 1.26.58.65.25 1.33.39.68.13 1.39.13.8 0 1.44-.22.65-.22 1.02-.7t.37-1.27q0-.68-.38-1.12-.39-.45-1.12-.77-.74-.33-1.78-.65-1.23-.39-2.09-.84-.86-.45-1.32-1.11-.45-.66-.45-1.69 0-1 .47-1.79t1.41-1.25q.93-.45 2.32-.45.58 0 1.14.08.56.08 1.07.22.52.14.94.31.42.17.72.35l-.16 1.55q-.55-.37-1.16-.62-.62-.24-1.22-.36-.6-.13-1.11-.13-.73 0-1.35.22-.61.22-.98.66-.37.45-.37 1.15 0 .61.31 1.02.32.4 1 .72.67.32 1.75.66 1.54.49 2.43.99.89.5 1.26 1.15.37.66.37 1.61 0 1.06-.46 1.89-.46.82-1.44 1.31-.99.49-2.53.49"></path><rect width="8.84" height="13.27" x="-4.42" y="-6.63" fill="none" rx="0" ry="0" transform="translate(227.66 387.8)"></rect><path fill="#333333" d="M233.985 393.733v-12.84h4.53q1.47 0 2.43.39.96.39 1.43 1.2.48.82.48 2.09 0 1.17-.43 2.09-.44.91-1.46 1.43-1.02.53-2.79.53h-2.81v-1.35h2.51q1.15 0 1.88-.27t1.09-.87q.35-.59.35-1.56 0-.79-.26-1.26-.26-.46-.67-.69-.42-.23-.91-.3-.49-.08-.94-.08h-3.62l.79-1.11v12.6Z"></path><rect width="8.87" height="12.84" x="-4.43" y="-6.42" fill="none" rx="0" ry="0" transform="translate(238.92 387.81)"></rect><path fill="#333333" d="M243.195 393.733q.38-1.04.79-2.18.41-1.14.79-2.17l1.59-4.41q.42-1.19.78-2.15.35-.95.7-1.93h2.14l.69 1.95q.34.95.77 2.14l1.58 4.42.78 2.18q.4 1.12.77 2.15h-1.69l-.8-2.32q-.41-1.19-.77-2.25l-2.34-6.8h-.15l-2.36 6.74q-.39 1.1-.8 2.3-.41 1.2-.82 2.33Zm2.38-3.22.14-1.28h6.5l.12 1.28Z"></path><rect width="11.38" height="12.84" x="-5.69" y="-6.42" fill="none" rx="0" ry="0" transform="translate(249.38 387.81)"></rect><path fill="#333333" d="M262.025 393.933q-1.52 0-2.74-.5-1.22-.49-2.07-1.39-.86-.9-1.31-2.11-.46-1.21-.46-2.64 0-1.94.8-3.44t2.23-2.34q1.42-.85 3.31-.85.64 0 1.24.09t1.14.24q.54.16 1 .34.46.18.79.36l-.14 1.57q-.7-.41-1.36-.67-.66-.26-1.3-.37-.63-.12-1.24-.12-1.38 0-2.46.63t-1.7 1.8q-.62 1.16-.62 2.77 0 1.07.32 2.02.32.94.96 1.66.63.72 1.57 1.13.94.41 2.19.41.46 0 .92-.06t.91-.18q.45-.13.89-.34.43-.21.86-.5l.12 1.55q-.37.24-.83.42-.45.18-.95.3-.5.11-1.02.16-.53.06-1.05.06"></path><rect width="10.51" height="13.27" x="-5.25" y="-6.63" fill="none" rx="0" ry="0" transform="translate(261.2 387.8)"></rect><path fill="#333333" d="M268.545 393.733v-12.84h7.97v1.4h-7.28l.9-1.16v12.35l-.81-1.15h7.21v1.4Zm1.24-5.83v-1.35h6.37v1.35h-3.89Z"></path><rect width="7.99" height="12.84" x="-4" y="-6.42" fill="none" rx="0" ry="0" transform="translate(273.04 387.81)"></rect><path fill="#333333" d="M279.685 393.933q-.37 0-.63-.16-.27-.15-.41-.41-.15-.26-.15-.61 0-.53.33-.85.32-.31.86-.31.38 0 .64.14t.41.4q.15.27.15.62 0 .52-.32.85-.32.33-.88.33"></path><rect width="2.39" height="2.34" x="-1.2" y="-1.17" fill="none" rx="0" ry="0" transform="translate(280.19 393.26)"></rect><path fill="#333333" d="M286.925 393.733v-12.84h1.46l2.22 3.13 2.09 2.96 2.78 3.92h.14v-10.01h1.55v12.84h-1.45q-.96-1.35-2.01-2.84-1.05-1.49-2.31-3.27l-2.8-3.95h-.13v10.06Z"></path><rect width="10.24" height="12.84" x="-5.12" y="-6.42" fill="none" rx="0" ry="0" transform="translate(292.55 387.81)"></rect><path fill="#333333" d="M306.245 393.933q-1.63 0-2.85-.53-1.23-.53-2.04-1.45-.82-.92-1.22-2.12-.41-1.2-.41-2.53 0-1.87.76-3.37.76-1.51 2.2-2.39 1.44-.88 3.5-.88 1.57 0 2.77.51 1.2.52 2.02 1.42.82.91 1.24 2.12.41 1.21.41 2.58 0 1.9-.76 3.4-.75 1.5-2.18 2.37-1.43.87-3.44.87m-.05-1.41q1.24 0 2.13-.43.89-.42 1.47-1.16t.86-1.68q.28-.94.28-1.96 0-1.1-.3-2.04-.31-.95-.9-1.67-.6-.72-1.48-1.12-.89-.4-2.06-.4-1.2 0-2.1.43-.89.42-1.49 1.15-.59.74-.89 1.68-.3.94-.3 1.97 0 1.05.29 1.98.29.94.88 1.67.59.74 1.49 1.16.9.42 2.12.42"></path><rect width="12.9" height="13.27" x="-6.45" y="-6.63" fill="none" rx="0" ry="0" transform="translate(306.68 387.8)"></rect><path fill="#333333" d="M324.395 393.933q-1.63 0-2.85-.53-1.23-.53-2.04-1.45-.81-.92-1.22-2.12-.4-1.2-.4-2.53 0-1.87.76-3.37.76-1.51 2.2-2.39 1.44-.88 3.5-.88 1.56 0 2.77.51 1.2.52 2.02 1.42.81.91 1.23 2.12.41 1.21.41 2.58 0 1.9-.75 3.4-.76 1.5-2.19 2.37-1.43.87-3.44.87m-.04-1.41q1.23 0 2.12-.43.89-.42 1.47-1.16t.86-1.68q.28-.94.28-1.96 0-1.1-.3-2.04-.3-.95-.9-1.67-.6-.72-1.48-1.12-.88-.4-2.05-.4-1.21 0-2.1.43-.9.42-1.49 1.15-.6.74-.9 1.68-.29.94-.29 1.97 0 1.05.29 1.98.28.94.87 1.67.59.74 1.49 1.16.9.42 2.13.42"></path><rect width="12.89" height="13.27" x="-6.45" y="-6.63" fill="none" rx="0" ry="0" transform="translate(324.83 387.8)"></rect><path fill="#333333" d="M333.355 393.733v-12.84h1.46q1.16 1.62 2.22 3.13l2.09 2.96 2.79 3.92h.13v-10.01h1.55v12.84h-1.45q-.95-1.35-2.01-2.84-1.05-1.49-2.31-3.27l-2.8-3.95h-.13v10.06Z"></path><rect width="10.24" height="12.84" x="-5.12" y="-6.42" fill="none" rx="0" ry="0" transform="translate(338.98 387.81)"></rect><path fill="#333333" d="M346.925 393.733v-12.84h7.97v1.4h-7.28l.9-1.16v12.35l-.81-1.15h7.21v1.4Zm1.24-5.83v-1.35h6.37v1.35h-3.89Z"></path><rect width="7.99" height="12.84" x="-4" y="-6.42" fill="none" rx="0" ry="0" transform="translate(351.42 387.81)"></rect><path fill="#333333" d="M361.055 393.733v-12.84h7.97v1.4h-7.28l.9-1.16v12.35l-.81-1.15h7.21v1.4Zm1.24-5.83v-1.35h6.37v1.35h-3.89Z"></path><rect width="7.99" height="12.84" x="-4" y="-6.42" fill="none" rx="0" ry="0" transform="translate(365.55 387.81)"></rect><path fill="#333333" d="M371.735 393.733v-12.84h1.63v12.59l-.61-1.2h7v1.45Z"></path><rect width="8.02" height="12.84" x="-4.01" y="-6.42" fill="none" rx="0" ry="0" transform="translate(376.25 387.81)"></rect><path fill="#333333" d="M385.765 393.933q-.8 0-1.61-.15-.82-.15-1.51-.37-.68-.22-1.11-.45l.16-1.54q.6.34 1.25.58.65.25 1.33.39.68.13 1.39.13.8 0 1.45-.22.64-.22 1.02-.7.37-.48.37-1.27 0-.68-.39-1.12-.39-.45-1.12-.77-.73-.33-1.78-.65-1.22-.39-2.08-.84-.87-.45-1.32-1.11-.46-.66-.46-1.69 0-1 .48-1.79.47-.79 1.4-1.25.94-.45 2.33-.45.57 0 1.13.08.57.08 1.08.22.51.14.94.31.42.17.72.35l-.17 1.55q-.55-.37-1.16-.62-.61-.24-1.21-.36-.61-.13-1.12-.13-.73 0-1.34.22-.61.22-.98.66-.38.45-.38 1.15 0 .61.32 1.02.31.4.99.72.68.32 1.75.66 1.55.49 2.44.99.88.5 1.26 1.15.37.66.37 1.61 0 1.06-.46 1.89-.47.82-1.45 1.31-.98.49-2.53.49"></path><rect width="8.85" height="13.27" x="-4.42" y="-6.63" fill="none" rx="0" ry="0" transform="translate(386.28 387.8)"></rect><path fill="#333333" d="M392.595 393.733v-12.84h7.98v1.4h-7.28l.9-1.16v12.35l-.81-1.15h7.21v1.4Zm1.25-5.83v-1.35h6.37v1.35h-3.89Z"></path><rect width="8" height="12.84" x="-4" y="-6.42" fill="none" rx="0" ry="0" transform="translate(397.1 387.81)"></rect><path fill="#333333" d="M403.745 393.933q-.37 0-.64-.16-.26-.15-.41-.41-.14-.26-.14-.61 0-.53.32-.85.33-.31.87-.31.37 0 .63.14.27.14.41.4.15.27.15.62 0 .52-.32.85-.32.33-.87.33"></path><rect width="2.38" height="2.34" x="-1.19" y="-1.17" fill="none" rx="0" ry="0" transform="translate(404.25 393.26)"></rect><path fill="#333333" d="M210.364 119.195v1.884c-.087-.087-.203-.174-.29-.29.116-.348.203-.753.261-1.16.03-.144.03-.29.03-.434m-51.345 56.418c-.087.464-.174.957-.174 1.45a13.756 13.756 0 0 1-.434-1.45z"></path><path fill="#333333" d="m272.755 136.822-.84-1.42h-7.684c2.842-4.726 3.624-11.279 2-17.599-2-7.973-8.407-13.684-16.728-14.902a22.678 22.678 0 0 0-3.102-.232c1.42-7.19-2.29-13.77-10.582-18.468-6.61-3.768-20.642-5.943-28.383 1.218-7.364-6.581-20.99-5.48-28.5-1.218-8.262 4.697-11.973 11.278-10.581 18.468-1.015 0-2.059.087-3.102.232-8.292 1.218-14.7 6.93-16.729 14.902-1.623 6.32-.84 12.873 2 17.598h-5.972V4.068l-4.377 2.58c-22.991 13.568-37.255 38.56-37.255 65.203 0 26.644 14.264 51.635 37.255 65.174l1.42.84a75.756 75.756 0 0 0-9.944 37.487c0 41.807 34.008 75.814 75.785 75.814 41.807 0 75.814-34.007 75.814-75.814a75.867 75.867 0 0 0-10.495-38.53m-134.001-7.596c-18.642-12.96-30.036-34.5-30.036-57.375s11.394-44.416 30.036-57.404zm71.581-9.596c.03-.145.03-.29.03-.435v1.884c1.478 1.42 3.246 2.668 5.276 3.45 1.391.493 2.812.754 4.233.754 2.087 0 4.232-.55 6.378-1.652a2.92 2.92 0 0 0 1.275-3.914 2.925 2.925 0 0 0-3.913-1.247c-2.146 1.102-4.088 1.305-5.944.609-3.653-1.334-6.349-5.828-7.306-7.944V90.841c2.812-3.682 8.263-4.64 13.366-4.175-3.074 3.479-6.959 9.567-4.755 16.351a2.888 2.888 0 0 0 3.653 1.856 2.915 2.915 0 0 0 1.855-3.653 6.813 6.813 0 0 1-.348-2.262c0-5.653 6.234-10.756 6.32-10.814l.03-.029c.927.348 1.768.725 2.464 1.131 6.958 3.943 9.364 8.785 7.161 14.41-4.436 1.449-8.263 4.435-10.785 8.639a2.926 2.926 0 0 0 1.015 4c1.362.812 3.16.349 3.972-1.014 3.537-5.943 9.74-7.335 14.35-6.64 4.668.668 10.235 3.828 11.974 10.583 1.218 4.812.667 9.886-1.391 13.25-.638 1.043-.986 2-1.13 2.927h-17.251a13.851 13.851 0 0 1-.116-2.58c2-.783 4.03-1.913 5.798-3.508 3.77-3.45 5.77-8.234 5.857-14.293a2.883 2.883 0 0 0-2.842-2.928c-1.507 0-2.928 1.246-2.957 2.841-.087 4.349-1.391 7.74-3.943 10.06-3.914 3.566-9.799 3.914-12.031 3.914-.551 0-.9-.029-.9-.029a2.893 2.893 0 0 0-3.13 2.638 2.936 2.936 0 0 0 2.667 3.132c.087 0 .609.058 1.45.058 1.043 0 2.522-.058 4.261-.32 0 .32.03.667.058 1.015h-24.672V121.08c-.087-.087-.203-.174-.29-.29.116-.348.203-.753.261-1.16m-56.186-.406c1.71-6.755 7.277-9.915 11.944-10.582 4.64-.696 10.814.696 14.38 6.639a2.911 2.911 0 0 0 3.972 1.015c1.363-.841 1.827-2.61.986-4.001-2.522-4.204-6.291-7.19-10.756-8.61h-.029c-2.203-5.625.203-10.496 7.161-14.439a13.621 13.621 0 0 1 2.435-1.102c.058.058 8.09 6.61 5.973 13.076a2.917 2.917 0 0 0 2.754 3.798 2.915 2.915 0 0 0 2.754-2c2.204-6.785-1.681-12.873-4.754-16.352 5.16-.522 10.698.406 13.597 4.117v28.122c-.464 2.174-5.567 3.16-8.205 3.218a2.9 2.9 0 0 0 .03 5.798h.028c.725-.029 4.639-.145 8.147-1.623v9.103H180.01c.029-.348.058-.695.058-1.014 1.74.26 3.218.319 4.261.319.841 0 1.363-.058 1.45-.058 1.595-.145 2.783-1.537 2.638-3.132a2.867 2.867 0 0 0-3.102-2.638c-.087 0-8.06.551-12.96-3.885-2.522-2.32-3.855-5.711-3.942-10.06-.03-1.595-1.45-2.957-2.928-2.841a2.927 2.927 0 0 0-2.87 2.928c.115 6.06 2.087 10.843 5.885 14.293 1.768 1.595 3.769 2.725 5.77 3.508.057.667.057 1.595-.117 2.58h-17.482c-.145-.927-.493-1.913-1.13-2.928-2.088-3.363-2.61-8.437-1.392-13.25m53.287 126.144c-36.559 0-66.653-28.18-69.726-63.956h15.366c1.247 12.843 12.119 22.932 25.339 22.932.725 0 1.42-.029 2.116-.087h.03a25.426 25.426 0 0 0 17.83-9.625 24.898 24.898 0 0 0 5.334-13.22h10.67a25.035 25.035 0 0 0 5.624 13.568 25.307 25.307 0 0 0 14.93 8.93h.03c1.536.29 3.102.434 4.725.434 13.191 0 24.063-10.089 25.31-22.932h12.177c-3.073 35.776-33.167 63.956-69.755 63.956m-49.025-69.755h.608a19.488 19.488 0 0 1 5.306-10.437 19.616 19.616 0 0 1 14.09-5.943c9.741 0 17.83 7.103 19.367 16.38.174.957.26 1.914.26 2.9.03.115.03.26.03.376 0 .87-.058 1.71-.203 2.523a19.532 19.532 0 0 1-16.265 16.844c-1.044.203-2.116.29-3.189.29-1.392 0-2.754-.145-4.059-.435a19.61 19.61 0 0 1-15.424-16.7 14.336 14.336 0 0 1-.203-2.522c0-.116 0-.26.03-.377-.03-.492 0-.956.086-1.42v-.03a13.756 13.756 0 0 1-.434-1.449m100.66 0c.174.957.26 1.914.26 2.9.03.115.03.26.03.376 0 .87-.058 1.71-.203 2.523-1.189 9.48-9.19 16.873-18.932 17.105-.174.029-.348.029-.522.029-2.03 0-4-.319-5.827-.899a19.599 19.599 0 0 1-13.626-16.235 14.336 14.336 0 0 1-.203-2.523c0-.116 0-.26.029-.377 0-.985.087-1.942.26-2.899a19.206 19.206 0 0 1 5.306-10.408 18.545 18.545 0 0 1 5.537-4h.145c2.58-1.276 5.335-1.972 8.38-1.972 2.898 0 5.653.638 8.117 1.768a19.36 19.36 0 0 1 4.726 3.044 16.089 16.089 0 0 1 2.203 2.233h.029c.87 1.044 1.624 2 2.261 3.218.03 0 .03.029.03.029v.145a19.703 19.703 0 0 1 2 5.943m5.856 0a25.023 25.023 0 0 0-8.784-16.12 23.593 23.593 0 0 0-5.016-3.333 25.642 25.642 0 0 0-6.436-2.233 25.74 25.74 0 0 0-4.987-.493c-12.93 0-23.628 9.684-25.223 22.18h-10.843c-1.594-12.496-12.293-22.18-25.223-22.18-2.638 0-5.219.406-7.625 1.189a25.536 25.536 0 0 0-10.263 6.146c-.406.406-.812.812-1.16 1.247a22.963 22.963 0 0 0-2.493 3.305 24.974 24.974 0 0 0-3.711 10.292h-15.714v-.26a69.944 69.944 0 0 1 8.9-34.153H268.58a70.232 70.232 0 0 1 8.872 34.152v.261z"></path><path fill="#333333" d="M210.364 119.195v1.884c-.087-.087-.203-.174-.29-.29.116-.348.203-.753.261-1.16.03-.144.03-.29.03-.434m-51.953 56.418c.116.493.26.957.434 1.45 0-.493.087-.986.174-1.45z"></path><path fill="#333333" d="M159.02 175.613c-.088.464-.175.957-.175 1.45a13.756 13.756 0 0 1-.434-1.45z"></path><path fill="#333333" d="M158.41 175.613c.117.493.261.957.435 1.45 0-.493.087-.986.174-1.45z"></path><path fill="#333333" d="M158.41 175.613c.117.493.261.957.435 1.45 0-.493.087-.986.174-1.45z"></path></svg></svg>